<?xml version="1.0" standalone="no"?>
<!DOCTYPE svg PUBLIC "-//W3C//DTD SVG 20010904//EN"
 "http://www.w3.org/TR/2001/REC-SVG-20010904/DTD/svg10.dtd">
<svg version="1.0" xmlns="http://www.w3.org/2000/svg"
 width="666.000000pt" height="666.000000pt" viewBox="0 0 666.000000 666.000000"
 preserveAspectRatio="xMidYMid meet">

<g transform="translate(0.000000,666.000000) scale(0.100000,-0.100000)"
fill="#000000" stroke="none">
<path d="M2943 6539 c-233 -9 -525 -40 -548 -59 -32 -26 -45 -85 -69 -305 -14
-127 -30 -291 -36 -365 -13 -160 -18 -189 -29 -171 -11 17 -78 7 -139 -20 -57
-24 -68 -54 -87 -226 -9 -76 -18 -148 -20 -160 -5 -19 -2 -21 22 -14 16 5 48
5 73 1 25 -4 39 -8 31 -9 -7 0 -52 -19 -99 -41 -47 -22 -93 -38 -102 -35 -22
7 -122 -68 -175 -131 -66 -80 -130 -196 -164 -298 -61 -186 -60 -167 -58
-1421 3 -1133 3 -1141 25 -1229 58 -237 182 -426 364 -553 88 -61 80 -42 103
-252 9 -74 23 -149 32 -168 27 -58 151 -104 186 -69 15 15 16 14 22 -16 3 -18
14 -132 25 -253 44 -482 56 -551 100 -575 30 -16 302 -48 524 -61 240 -14 581
-6 836 20 225 24 264 33 286 66 25 38 31 79 64 425 38 406 39 417 51 399 12
-21 87 -16 135 9 54 27 64 54 70 187 2 61 9 128 14 150 8 36 9 34 5 -20 -3
-33 -8 -90 -11 -127 -4 -38 -4 -68 -1 -68 2 0 10 53 16 118 17 171 22 184 83
223 133 86 228 194 300 345 74 154 89 226 123 584 9 91 25 208 35 261 24 126
101 355 128 380 55 51 73 319 32 469 -12 43 -20 55 -42 63 -11 4 -18 17 -18
32 0 14 -11 53 -25 87 -58 144 -88 293 -115 583 -28 296 -54 405 -132 556 -65
127 -169 239 -290 315 -26 16 -50 35 -53 43 -3 8 -12 75 -20 150 -19 172 -30
215 -66 246 -30 25 -127 50 -160 42 -23 -6 -22 -16 -54 343 -32 351 -39 400
-62 450 -21 47 -40 54 -168 69 -287 34 -581 43 -942 30z m-848 -1154 c-5 -98
-10 -125 -22 -130 -9 -3 -18 -3 -21 0 -5 5 16 239 25 269 5 18 6 18 15 1 7
-11 8 -64 3 -140z m2063 -47 l-13 -23 -3 23 c-4 28 21 66 26 39 2 -9 -3 -26
-10 -39z m-1878 6 c0 -14 -4 -22 -10 -19 -5 3 -10 17 -10 31 0 14 4 22 10 19
6 -3 10 -17 10 -31z m-450 -337 c0 -2 -10 -12 -22 -23 l-23 -19 19 23 c18 21
26 27 26 19z m542 -195 c21 -37 52 -91 69 -119 17 -29 27 -53 22 -53 -5 0 -38
50 -73 112 -74 127 -75 128 -63 128 4 0 25 -30 45 -68z m1682 -59 c-79 -137
-72 -128 -80 -121 -3 3 8 28 24 54 16 27 48 82 72 122 23 41 44 71 47 68 3 -3
-25 -58 -63 -123z m-897 -55 c-2 -35 -3 -9 -3 57 0 66 1 94 3 63 2 -32 2 -86
0 -120z m111 160 c20 -20 14 -65 -18 -128 -16 -33 -30 -62 -30 -65 0 -3 14 -5
30 -5 17 0 30 -4 30 -10 0 -5 -20 -10 -44 -10 l-45 0 25 57 c14 31 32 69 40
85 19 37 10 70 -19 66 -14 -2 -23 -11 -25 -26 -2 -12 -7 -20 -12 -17 -10 6 -3
32 13 53 12 15 39 16 55 0z m-1575 -53 c-9 -19 -18 -33 -21 -31 -4 5 26 66 33
66 3 0 -3 -16 -12 -35z m124 -42 c-3 -16 -16 -73 -29 -128 l-23 -100 0 -1205
0 -1205 24 -117 c14 -65 22 -121 18 -124 -15 -15 -38 10 -71 78 -72 152 -69
102 -73 1277 -2 631 0 1102 6 1175 11 139 44 257 92 329 35 53 65 64 56 20z
m-163 -48 c-8 -21 -25 -77 -37 -124 -20 -84 -21 -106 -25 -1196 -3 -1038 0
-1231 23 -1345 5 -24 5 -24 -4 -2 -6 12 -17 62 -26 110 -22 127 -22 2204 -1
2329 22 120 70 282 82 270 2 -2 -3 -21 -12 -42z m3039 -55 c58 -133 58 -121
55 -1366 -3 -1124 -3 -1140 -24 -1211 -12 -39 -32 -88 -45 -110 l-24 -38 -3
33 c-2 18 2 54 9 80 10 36 13 321 16 1210 4 1184 2 1253 -33 1430 -11 56 21
39 49 -28z m-1476 -162 c-3 -8 -6 -5 -6 6 -1 11 2 17 5 13 3 -3 4 -12 1 -19z
m-217 -59 c0 -6 -4 -7 -10 -4 -5 3 -10 11 -10 16 0 6 5 7 10 4 6 -3 10 -11 10
-16z m453 6 c-3 -9 -8 -14 -10 -11 -3 3 -2 9 2 15 9 16 15 13 8 -4z m-275
-114 c20 -13 10 -46 -15 -49 -12 -2 -24 -11 -26 -20 -3 -9 -5 4 -6 31 -1 39 2
47 17 47 9 0 23 -4 30 -9z m85 -43 c10 -24 12 -37 5 -30 -15 15 -48 16 -48 2
0 -5 -4 -10 -9 -10 -5 0 -2 18 6 40 9 22 19 40 23 40 4 0 14 -19 23 -42z m42
2 c0 -22 -3 -40 -7 -40 -5 0 -8 18 -8 40 0 22 3 40 8 40 4 0 7 -18 7 -40z
m-480 -10 c3 -5 1 -10 -4 -10 -6 0 -11 5 -11 10 0 6 2 10 4 10 3 0 8 -4 11
-10z m800 0 c-3 -5 -12 -10 -18 -10 -7 0 -6 4 3 10 19 12 23 12 15 0z m-540
-180 c49 -17 92 -26 111 -23 36 6 57 -15 52 -49 -4 -34 -44 -36 -77 -4 -16 15
-85 46 -180 80 -84 30 -156 57 -158 60 -3 3 -2 9 1 15 4 6 37 -1 89 -20 45
-17 118 -44 162 -59z m1772 28 c-3 -7 -5 -2 -5 12 0 14 2 19 5 13 2 -7 2 -19
0 -25z m10 -80 c-3 -7 -5 -2 -5 12 0 14 2 19 5 13 2 -7 2 -19 0 -25z m-2100
-4 c-3 -3 -12 -4 -19 -1 -8 3 -5 6 6 6 11 1 17 -2 13 -5z m920 0 c-3 -3 -12
-4 -19 -1 -8 3 -5 6 6 6 11 1 17 -2 13 -5z m-1579 -66 c125 -72 117 -67 110
-73 -6 -6 -193 99 -218 122 -28 26 2 12 108 -49z m2342 58 c0 -8 -231 -138
-236 -133 -3 3 27 24 68 48 40 23 91 52 113 65 38 23 55 29 55 20z m427 -48
c-3 -7 -5 -2 -5 12 0 14 2 19 5 13 2 -7 2 -19 0 -25z m-663 0 c8 -13 8 -23 0
-35 -5 -9 -204 -147 -442 -307 -427 -287 -432 -292 -458 -344 -28 -60 -73 -89
-118 -78 -34 8 -33 24 2 32 46 10 50 12 67 38 25 38 -4 86 -52 86 -31 0 -49
-22 -57 -70 -8 -51 -30 -49 -34 3 -3 35 -12 43 -288 243 -157 114 -291 216
-299 227 -16 23 -10 44 16 52 14 5 93 -47 312 -206 l292 -213 65 2 65 3 375
251 c206 139 402 271 435 295 63 45 100 52 119 21z m673 -50 c-3 -7 -5 -2 -5
12 0 14 2 19 5 13 2 -7 2 -19 0 -25z m10 -40 c-3 -8 -6 -5 -6 6 -1 11 2 17 5
13 3 -3 4 -12 1 -19z m10 -40 c-3 -8 -6 -5 -6 6 -1 11 2 17 5 13 3 -3 4 -12 1
-19z m39 -125 c-5 -5 -36 86 -35 101 0 6 9 -13 20 -43 10 -30 17 -56 15 -58z
m-2116 87 c0 -5 -5 -10 -11 -10 -5 0 -7 5 -4 10 3 6 8 10 11 10 2 0 4 -4 4
-10z m346 -27 c-1 -20 4 -38 11 -40 9 -3 12 7 9 36 -2 23 0 41 4 41 5 0 8 -19
7 -42 -2 -36 -5 -43 -22 -43 -17 0 -20 7 -22 43 -1 23 2 42 6 42 4 0 7 -16 7
-37z m66 3 c-4 -36 14 -58 29 -35 6 9 9 10 9 2 0 -19 -20 -26 -35 -13 -15 13
-20 61 -8 73 9 10 9 10 5 -27z m38 25 c0 -5 3 -17 7 -27 4 -11 3 -15 -4 -11
-14 9 -24 47 -12 47 5 0 9 -4 9 -9z m345 -1 c3 -5 2 -10 -4 -10 -5 0 -13 5
-16 10 -3 6 -2 10 4 10 5 0 13 -4 16 -10z m1345 -135 c0 -5 -5 -3 -10 5 -5 8
-10 20 -10 25 0 6 5 3 10 -5 5 -8 10 -19 10 -25z m29 -57 c12 -21 20 -38 18
-38 -7 0 -47 65 -47 75 0 10 1 8 29 -37z m-1999 28 c0 -3 -4 -8 -10 -11 -5 -3
-10 -1 -10 4 0 6 5 11 10 11 6 0 10 -2 10 -4z m455 -6 c3 -5 1 -10 -4 -10 -6
0 -11 5 -11 10 0 6 2 10 4 10 3 0 8 -4 11 -10z m-238 -72 c-3 -8 -6 -5 -6 6
-1 11 2 17 5 13 3 -3 4 -12 1 -19z m-999 -220 c29 -29 1 -88 -35 -73 -16 7
-15 9 7 14 16 5 25 14 25 26 0 16 -8 21 -44 23 -35 3 -43 0 -38 -11 10 -28
-21 -57 -62 -57 -42 0 -61 14 -61 45 0 12 5 26 12 33 16 16 180 16 196 0z
m2017 -8 c-9 -10 -15 -26 -12 -35 8 -20 70 -20 88 1 11 14 13 14 21 0 5 -9 22
-16 39 -16 37 0 50 27 24 46 -23 17 -11 33 13 18 23 -15 27 -48 7 -68 -18 -18
-70 -22 -80 -6 -4 7 -12 7 -25 0 -42 -22 -110 -3 -110 31 0 21 21 49 37 49 14
0 14 -2 -2 -20z m842 -42 c-2 -13 -4 -3 -4 22 0 25 2 35 4 23 2 -13 2 -33 0
-45z m-1860 -250 c-3 -8 -6 -5 -6 6 -1 11 2 17 5 13 3 -3 4 -12 1 -19z m1793
-13 c-7 -9 -15 -13 -17 -11 -7 7 7 26 19 26 6 0 6 -6 -2 -15z m-2016 -40 c3
-8 1 -15 -4 -15 -6 0 -10 7 -10 15 0 8 2 15 4 15 2 0 6 -7 10 -15z m458 -7
c-7 -7 -12 -8 -12 -2 0 6 3 14 7 17 3 4 9 5 12 2 2 -3 -1 -11 -7 -17z m1529
-25 c-12 -20 -14 -14 -5 12 4 9 9 14 11 11 3 -2 0 -13 -6 -23z m-1916 -123
c17 0 25 7 28 23 2 12 4 0 4 -28 0 -27 -2 -40 -4 -27 -3 15 -11 22 -28 22 -17
0 -25 -7 -28 -22 -2 -13 -4 0 -4 27 0 28 2 40 4 28 3 -16 11 -23 28 -23z m93
33 c-34 -5 -36 -20 -5 -33 l22 -9 -22 0 c-33 -1 -29 -29 5 -34 25 -4 25 -4 -5
-6 -33 -1 -33 0 -33 44 0 44 0 45 33 44 30 -2 30 -2 5 -6z m87 -29 c21 -52 17
-67 -5 -19 -10 22 -19 34 -21 28 -3 -25 -5 -28 -17 -48 -12 -19 -12 -18 -6 5
11 40 23 70 29 70 2 0 12 -16 20 -36z m91 21 c4 -8 1 -22 -5 -29 -8 -10 -9
-16 -1 -21 5 -3 10 -12 9 -18 0 -7 -7 -2 -16 11 -8 12 -19 22 -24 22 -4 0 -10
-10 -12 -22 -2 -13 -5 -2 -6 25 -1 44 1 47 24 47 14 0 28 -7 31 -15z m72 8
c-13 -3 -18 -16 -20 -46 l-1 -42 -4 42 c-3 29 -9 43 -21 46 -9 3 1 5 23 5 22
0 32 -2 23 -5z m-578 -53 c0 -5 -2 -10 -4 -10 -3 0 -8 5 -11 10 -3 6 -1 10 4
10 6 0 11 -4 11 -10z m800 6 c0 -2 -7 -7 -16 -10 -8 -3 -12 -2 -9 4 6 10 25
14 25 6z m-1410 -85 c0 -8 -202 -128 -234 -140 -33 -11 27 31 121 85 123 71
113 67 113 55z m2230 -134 c0 -5 -19 2 -42 16 -162 92 -188 109 -188 117 0 4
52 -22 115 -58 63 -37 115 -71 115 -75z m-1443 67 c102 -38 162 -55 181 -51
15 3 35 1 44 -4 31 -17 17 -79 -18 -79 -7 0 -26 12 -43 28 -19 16 -91 49 -183
83 -83 30 -154 61 -156 67 -6 20 14 15 175 -44z m1880 -16 c-3 -8 -6 -5 -6 6
-1 11 2 17 5 13 3 -3 4 -12 1 -19z m-10 -50 c-3 -8 -6 -5 -6 6 -1 11 2 17 5
13 3 -3 4 -12 1 -19z m-2110 -14 c-3 -3 -12 -4 -19 -1 -8 3 -5 6 6 6 11 1 17
-2 13 -5z m920 0 c-3 -3 -12 -4 -19 -1 -8 3 -5 6 6 6 11 1 17 -2 13 -5z m1180
-46 c-3 -8 -6 -5 -6 6 -1 11 2 17 5 13 3 -3 4 -12 1 -19z m-10 -90 c-3 -7 -5
-2 -5 12 0 14 2 19 5 13 2 -7 2 -19 0 -25z m-10 -95 c-3 -10 -5 -4 -5 12 0 17
2 24 5 18 2 -7 2 -21 0 -30z m-1689 -30 c-1 -44 -2 -45 -5 -10 -2 20 -9 37
-14 37 -6 0 -7 5 -4 10 14 23 25 7 23 -37z m75 40 c-28 -5 -30 -19 -3 -26 12
-3 20 -14 20 -26 0 -25 -26 -39 -42 -23 -8 8 -4 9 12 5 18 -5 21 -2 18 13 -2
11 -11 18 -21 18 -12 -1 -17 6 -17 22 0 20 5 24 28 23 23 -2 24 -2 5 -6z m84
-9 c3 -8 -4 -25 -17 -39 l-22 -23 24 -5 c21 -4 20 -4 -4 -6 -33 -1 -35 9 -8
34 11 10 20 25 20 33 0 9 -7 13 -20 9 -11 -3 -20 -1 -20 4 0 15 40 10 47 -7z
m-487 2 c0 -3 -4 -8 -10 -11 -5 -3 -10 -1 -10 4 0 6 5 11 10 11 6 0 10 -2 10
-4z m800 -6 c0 -5 -7 -7 -15 -4 -8 4 -15 8 -15 10 0 2 7 4 15 4 8 0 15 -4 15
-10z m1207 -122 c-3 -8 -6 -5 -6 6 -1 11 2 17 5 13 3 -3 4 -12 1 -19z m-1844
-43 c-3 -9 -8 -14 -10 -11 -3 3 -2 9 2 15 9 16 15 13 8 -4z m461 -1 c3 -8 2
-12 -4 -9 -6 3 -10 10 -10 16 0 14 7 11 14 -7z m1373 -66 c-3 -7 -5 -2 -5 12
0 14 2 19 5 13 2 -7 2 -19 0 -25z m-1610 0 c-3 -8 -6 -5 -6 6 -1 11 2 17 5 13
3 -3 4 -12 1 -19z m1600 -70 c-3 -7 -5 -2 -5 12 0 14 2 19 5 13 2 -7 2 -19 0
-25z m-3190 -70 c-3 -8 -6 -5 -6 6 -1 11 2 17 5 13 3 -3 4 -12 1 -19z m788
-85 c-79 -135 -86 -145 -92 -140 -2 3 21 50 52 104 79 135 86 145 92 140 2 -3
-21 -50 -52 -104z m1639 -14 c37 -66 66 -122 63 -125 -3 -4 -103 161 -144 239
-2 4 -1 7 4 7 4 0 39 -54 77 -121z m-806 99 c15 -15 16 -48 2 -48 -5 0 -10 9
-10 21 0 15 -5 20 -22 17 -19 -2 -24 -10 -26 -40 -3 -34 -1 -38 20 -38 35 0
48 -18 48 -65 0 -62 -33 -84 -72 -48 -25 22 -27 173 -2 197 18 19 45 21 62 4z
m1549 -10 c-3 -8 -6 -5 -6 6 -1 11 2 17 5 13 3 -3 4 -12 1 -19z m-36 -105
c-12 -20 -14 -14 -5 12 4 9 9 14 11 11 3 -2 0 -13 -6 -23z m-2490 -606 c-8 -8
-11 -4 -11 14 0 33 14 47 18 19 2 -12 -1 -27 -7 -33z m1889 10 c0 -24 -3 -28
-10 -17 -13 20 -13 63 0 55 6 -3 10 -21 10 -38z"/>
<path d="M3140 4311 c0 -15 6 -21 21 -21 25 0 22 33 -4 38 -12 2 -17 -3 -17
-17z"/>
<path d="M3230 4295 c0 -8 5 -15 10 -15 6 0 10 7 10 15 0 8 -4 15 -10 15 -5 0
-10 -7 -10 -15z"/>
<path d="M3195 4051 c-8 -15 3 -31 21 -31 9 0 14 7 12 17 -4 20 -24 28 -33 14z"/>
<path d="M3865 3776 c-267 -181 -338 -236 -294 -224 8 1 150 95 316 207 259
173 323 223 285 220 -4 0 -142 -91 -307 -203z"/>
<path d="M2540 3803 c0 -5 77 -64 171 -132 116 -83 174 -120 181 -113 10 10
11 10 -209 170 -102 74 -143 96 -143 75z"/>
<path d="M2024 3335 c-10 -25 9 -37 52 -33 31 2 39 7 39 23 0 16 -8 21 -43 23
-32 2 -44 -1 -48 -13z"/>
<path d="M3290 2864 c0 -9 7 -14 17 -12 25 5 28 28 4 28 -12 0 -21 -6 -21 -16z"/>
<path d="M3201 2611 c-15 -10 -8 -41 9 -41 15 0 25 29 14 40 -5 5 -15 5 -23 1z"/>
<path d="M3194 1876 c-3 -8 -4 -27 -2 -43 2 -20 9 -29 26 -31 20 -3 22 1 22
42 0 40 -3 46 -20 46 -11 0 -23 -6 -26 -14z"/>
</g>
</svg>
