<?xml version="1.0" standalone="no"?>
<!DOCTYPE svg PUBLIC "-//W3C//DTD SVG 20010904//EN"
 "http://www.w3.org/TR/2001/REC-SVG-20010904/DTD/svg10.dtd">
<svg version="1.0" xmlns="http://www.w3.org/2000/svg"
 width="828.000000pt" height="1030.000000pt" viewBox="0 0 828.000000 1030.000000"
 preserveAspectRatio="xMidYMid meet">

<g transform="translate(0.000000,1030.000000) scale(0.100000,-0.100000)"
fill="#000000" stroke="none">
<path d="M0 5150 l0 -5150 4140 0 4140 0 0 5150 0 5150 -4140 0 -4140 0 0
-5150z m2638 3355 c-8 -8 -371 -86 -382 -82 -6 2 25 12 69 22 44 10 125 28
180 41 99 22 143 29 133 19z m3187 -41 c181 -39 216 -54 214 -91 0 -12 -4 -9
-10 8 -9 25 -20 29 -209 70 -110 23 -200 47 -200 52 0 5 6 7 13 4 6 -2 93 -22
192 -43z m-3197 -276 c-1 -106 -5 -215 -9 -243 -7 -58 -12 -26 -9 58 1 45 -1
57 -13 57 -16 0 -30 24 -20 34 4 3 12 1 20 -5 10 -9 13 -6 13 13 0 13 -5 29
-12 36 -9 9 -9 12 0 12 7 0 12 5 12 11 0 8 -4 8 -15 -1 -8 -6 -20 -9 -27 -5
-7 4 -3 -2 10 -12 29 -24 17 -38 -15 -18 -13 9 -23 11 -23 6 0 -5 5 -13 10
-16 6 -4 8 -11 4 -16 -3 -5 -11 -6 -17 -2 -22 13 -42 8 -61 -15 -10 -13 -22
-19 -25 -14 -10 15 -63 22 -57 7 3 -8 -3 -16 -12 -20 -9 -3 -18 -1 -20 4 -2 6
-12 11 -23 11 -13 0 -17 -5 -12 -17 6 -15 4 -16 -9 -5 -13 10 -17 9 -22 -10
-5 -18 -8 -20 -15 -9 -13 20 -31 4 -32 -27 -1 -27 -1 -27 -8 3 -5 24 -8 26
-13 13 -15 -37 -30 -19 -24 30 3 26 8 88 12 137 l6 90 28 1 c16 1 77 14 136
29 87 22 108 25 115 14 5 -8 22 -14 38 -14 16 -1 27 3 25 7 -3 4 6 8 20 8 21
0 26 5 26 23 0 22 7 37 17 37 2 0 3 -87 1 -192z m3017 -45 c3 -162 1 -205 -5
-148 -7 66 -15 347 -11 379 0 5 4 7 7 3 3 -3 7 -108 9 -234z m-3108 191 c-3
-3 -12 -4 -19 -1 -8 3 -5 6 6 6 11 1 17 -2 13 -5z m3161 -51 c-10 -2 -18 -9
-18 -15 0 -6 -3 -9 -6 -5 -10 10 6 27 24 26 15 -1 15 -2 0 -6z m65 -23 c-3
-12 -8 -19 -11 -16 -5 6 5 36 12 36 2 0 2 -9 -1 -20z m237 0 c0 -5 -2 -10 -4
-10 -3 0 -8 5 -11 10 -3 6 -1 10 4 10 6 0 11 -4 11 -10z m27 -12 c-3 -8 -6 -5
-6 6 -1 11 2 17 5 13 3 -3 4 -12 1 -19z m-217 2 c0 -5 -4 -10 -9 -10 -6 0 -13
5 -16 10 -3 6 1 10 9 10 9 0 16 -4 16 -10z m37 -16 c-3 -3 -12 -4 -19 -1 -8 3
-5 6 6 6 11 1 17 -2 13 -5z m-142 -52 c-3 -3 -11 0 -18 7 -9 10 -8 11 6 5 10
-3 15 -9 12 -12z m295 -2 c0 -5 -2 -10 -4 -10 -3 0 -8 5 -11 10 -3 6 -1 10 4
10 6 0 11 -4 11 -10z m40 -17 c0 -26 -1 -26 -17 -10 -16 16 -16 19 -3 27 20
13 20 13 20 -17z m-274 2 c12 -9 14 -14 6 -15 -7 0 -20 7 -28 15 -20 19 -4 20
22 0z m-3191 -109 c12 -12 12 -15 0 -20 -8 -3 -17 -1 -21 5 -4 7 -10 6 -18 0
-7 -6 -16 -8 -19 -4 -4 3 -9 -2 -13 -11 -4 -11 -13 -15 -25 -11 -11 4 -19 2
-19 -4 0 -6 -4 -11 -10 -11 -22 0 -7 20 33 44 48 29 72 32 92 12z m3460 4 c3
-5 -1 -10 -10 -10 -9 0 -13 5 -10 10 3 6 8 10 10 10 2 0 7 -4 10 -10z m-3628
-69 c-1 -11 -6 -17 -14 -14 -10 4 -11 9 -2 19 15 19 18 18 16 -5z m-37 -11 c0
-5 -7 -10 -16 -10 -8 0 -12 5 -9 10 3 6 10 10 16 10 5 0 9 -4 9 -10z m1660
-141 c0 -5 -4 -9 -10 -9 -5 0 -10 7 -10 16 0 8 5 12 10 9 6 -3 10 -10 10 -16z
m91 -1 l31 -23 18 23 c23 27 41 28 58 2 14 -23 50 -27 58 -5 9 22 47 18 62 -5
15 -24 35 -26 52 -5 17 21 40 19 66 -6 23 -21 32 -21 67 3 15 11 21 9 36 -11
22 -29 46 -35 62 -15 17 21 31 17 55 -13 20 -25 24 -26 48 -15 40 18 55 15 66
-13 10 -26 52 -36 65 -15 9 15 35 12 35 -4 0 -22 30 -40 69 -43 25 -1 31 1 21
7 -8 5 -12 11 -9 14 7 7 22 -6 41 -35 16 -25 16 -26 -8 -21 -13 2 -21 8 -18
13 9 16 -8 10 -20 -6 -10 -14 -26 -12 -141 19 -476 126 -993 121 -1432 -15
-54 -16 -106 -28 -116 -25 -9 2 -15 1 -12 -4 3 -4 -3 -10 -13 -13 -9 -3 -45
-16 -79 -30 -57 -23 -63 -24 -75 -9 -11 15 -11 15 2 5 12 -9 25 -6 60 13 25
13 39 24 31 24 -8 0 -11 7 -8 19 3 15 1 18 -12 14 -14 -4 -14 -3 -1 6 9 6 18
7 24 1 19 -19 56 -11 65 14 11 27 34 39 49 24 16 -16 60 -1 67 22 7 23 45 27
45 6 0 -23 58 0 66 26 4 15 11 18 27 14 55 -16 62 -15 83 11 l21 26 32 -19 33
-19 22 28 c25 31 38 34 56 12 18 -21 47 -19 60 5 13 24 33 25 65 4 22 -14 25
-14 44 5 25 25 56 27 65 6 8 -21 33 -19 53 5 22 25 27 25 64 -2z m29 12 c0 -5
-4 -10 -10 -10 -5 0 -10 5 -10 10 0 6 5 10 10 10 6 0 10 -4 10 -10z m120 -2
c0 -4 -4 -8 -9 -8 -6 0 -12 4 -15 8 -3 5 1 9 9 9 8 0 15 -4 15 -9z m-350 -8
c0 -5 -4 -10 -9 -10 -6 0 -13 5 -16 10 -3 6 1 10 9 10 9 0 16 -4 16 -10z m470
-2 c0 -4 -7 -8 -15 -8 -8 0 -15 4 -15 8 0 5 7 9 15 9 8 0 15 -4 15 -9z m-600
-10 c0 -9 4 -8 10 2 6 9 10 10 10 3 0 -19 -17 -24 -30 -8 -9 10 -9 15 -1 15 6
0 11 -6 11 -12z m-100 -12 c0 -11 -19 -15 -25 -6 -3 5 1 10 9 10 9 0 16 -2 16
-4z m-125 -26 c3 -5 1 -10 -4 -10 -6 0 -11 5 -11 10 0 6 2 10 4 10 3 0 8 -4
11 -10z m-867 -102 l33 -16 -33 -8 c-18 -4 -40 -8 -48 -9 -9 0 -21 -4 -28 -9
-6 -4 -12 -2 -12 3 0 6 5 12 10 12 6 1 15 3 20 4 6 1 21 3 34 4 23 1 22 3 -15
40 -22 21 -39 47 -39 57 0 12 8 5 23 -21 12 -22 37 -47 55 -57z m6 51 c17 -10
26 -19 20 -19 -17 0 -64 40 -63 53 0 8 3 7 6 -1 3 -8 19 -22 37 -33z m2872 2
c-28 -30 -68 -44 -97 -31 -23 10 -22 10 6 5 22 -4 40 1 65 19 43 30 48 32 26
7z m48 -18 c-11 -15 -27 -29 -35 -31 -8 -3 -2 8 14 23 15 15 27 32 27 38 0 6
3 7 7 4 4 -4 -2 -19 -13 -34z m-2777 1 c-3 -3 -12 -4 -19 -1 -8 3 -5 6 6 6 11
1 17 -2 13 -5z m120 -40 c-3 -3 -12 -4 -19 -1 -8 3 -5 6 6 6 11 1 17 -2 13 -5z
m2613 -14 c0 -5 -7 -7 -15 -4 -8 4 -15 8 -15 10 0 2 7 4 15 4 8 0 15 -4 15
-10z m-1370 -16 l25 -15 -25 8 c-31 10 -95 10 -135 1 l-30 -7 30 14 c39 18
104 18 135 -1z m1503 -24 c36 -14 10 -11 -59 7 -35 9 -64 20 -64 25 0 7 76
-13 123 -32z m-3153 10 c0 -5 -5 -10 -11 -10 -5 0 -7 5 -4 10 3 6 8 10 11 10
2 0 4 -4 4 -10z m609 -21 c-25 -16 -32 -9 -13 12 12 13 20 16 22 9 3 -7 -2
-16 -9 -21z m1891 7 c30 -14 58 -22 62 -20 5 3 8 0 8 -6 0 -13 -23 -7 -85 20
-22 10 -47 20 -55 23 -13 5 -13 5 0 6 8 0 40 -10 70 -23z m-1975 -6 c-3 -5
-11 -10 -16 -10 -6 0 -7 5 -4 10 3 6 11 10 16 10 6 0 7 -4 4 -10z m1150 -21
c67 -59 70 -152 7 -218 -50 -52 -97 -61 -160 -29 -83 41 -110 136 -61 214 26
43 67 63 131 64 39 0 54 -6 83 -31z m-1165 -49 c-8 -5 -19 -10 -25 -10 -5 0
-3 5 5 10 8 5 20 10 25 10 6 0 3 -5 -5 -10z m3204 -148 c88 -45 89 -46 118
-110 16 -35 27 -66 25 -68 -2 -2 -14 20 -27 49 -33 74 -42 82 -161 143 -59 30
-110 61 -112 69 -4 8 10 3 31 -11 20 -14 77 -46 126 -72z m-4134 84 c0 -2 -8
-10 -17 -17 -16 -13 -17 -12 -4 4 13 16 21 21 21 13z m-50 -36 c-26 -18 -175
-92 -167 -84 12 13 161 93 172 93 6 1 3 -4 -5 -9z m625 -20 c-3 -5 -10 -10
-16 -10 -5 0 -9 5 -9 10 0 6 7 10 16 10 8 0 12 -4 9 -10z m-100 -70 c-3 -5
-10 -10 -16 -10 -5 0 -9 5 -9 10 0 6 7 10 16 10 8 0 12 -4 9 -10z m2005 -4 c0
-30 -31 -161 -40 -170 -29 -29 -26 64 6 167 6 20 34 23 34 3z m-2730 -46 c-11
-21 -20 -46 -20 -54 0 -8 -4 -16 -8 -18 -5 -1 -26 -47 -47 -101 -20 -54 -39
-96 -41 -94 -10 9 118 307 131 307 3 0 -4 -18 -15 -40z m2950 -17 c0 -28 -51
-173 -60 -173 -21 0 -19 25 6 105 16 51 32 85 40 85 8 0 14 -8 14 -17z m-2315
-3 c-3 -5 -10 -10 -16 -10 -5 0 -9 5 -9 10 0 6 7 10 16 10 8 0 12 -4 9 -10z
m1865 -35 c0 -6 -6 -20 -14 -30 -12 -17 -16 -17 -31 -5 -18 15 -13 59 8 72 12
8 37 -17 37 -37z m-1382 18 c-10 -2 -26 -2 -35 0 -10 3 -2 5 17 5 19 0 27 -2
18 -5z m2315 0 c3 -5 -14 -9 -37 -10 -29 -2 -37 0 -26 7 18 12 57 13 63 3z
m-2883 -53 c0 -5 -9 -10 -21 -10 -11 0 -17 5 -14 10 3 6 13 10 21 10 8 0 14
-4 14 -10z m2616 -4 c7 -17 -61 -166 -75 -166 -23 0 -20 24 15 100 36 79 49
93 60 66z m-603 -91 c78 -13 180 -36 227 -50 110 -35 243 -86 237 -91 -2 -3
-40 9 -83 26 -342 133 -791 158 -1179 65 -55 -13 -138 -37 -185 -54 -46 -16
-86 -28 -88 -26 -7 6 165 67 272 95 96 26 246 51 366 63 89 8 302 -5 433 -28z
m2007 0 c0 -5 -5 -3 -10 5 -5 8 -10 20 -10 25 0 6 5 3 10 -5 5 -8 10 -19 10
-25z m-4110 15 c0 -5 -4 -10 -9 -10 -6 0 -13 5 -16 10 -3 6 1 10 9 10 9 0 16
-4 16 -10z m4140 -95 c0 -5 -5 -3 -10 5 -5 8 -10 20 -10 25 0 6 5 3 10 -5 5
-8 10 -19 10 -25z m-4235 15 c3 -5 1 -10 -4 -10 -6 0 -11 5 -11 10 0 6 2 10 4
10 3 0 8 -4 11 -10z m-495 -70 c-16 -40 -23 -33 -9 9 6 18 14 30 17 27 2 -3
-1 -19 -8 -36z m5068 0 c46 -18 81 -34 79 -37 -3 -2 -47 12 -98 33 -85 33 -96
35 -118 23 -33 -18 -37 -41 -40 -189 -1 -69 -5 -127 -7 -129 -2 -3 8 -10 23
-17 l28 -12 -35 0 c-19 1 -46 -2 -59 -7 -22 -7 -23 -5 -17 18 4 16 1 27 -7 31
-6 3 5 3 25 0 l37 -6 3 152 c3 138 5 153 23 167 26 19 59 13 163 -27z m-1618
14 c0 -25 -19 -54 -36 -54 -20 0 -28 24 -14 49 13 25 50 28 50 5z m250 -20 c0
-21 -102 -155 -114 -151 -19 7 -10 32 39 100 47 65 75 84 75 51z m-2100 -4
c-8 -5 -19 -10 -25 -10 -5 0 -3 5 5 10 8 5 20 10 25 10 6 0 3 -5 -5 -10z m884
-32 c24 -34 24 -483 -1 -510 -19 -21 -42 -23 -67 -5 -16 11 -17 35 -16 262 0
222 2 251 17 263 25 18 50 15 67 -10z m-156 0 c6 -8 11 -110 13 -254 3 -193 1
-244 -10 -257 -17 -22 -49 -22 -73 0 -16 15 -18 36 -18 258 0 174 3 244 12
253 16 16 63 15 76 0z m981 -30 c95 -52 153 -90 147 -96 -3 -2 -27 9 -53 25
-26 17 -78 47 -115 68 -63 34 -78 45 -61 45 3 0 40 -19 82 -42z m-3340 -15
c-7 -21 -14 -40 -14 -43 -1 -3 -5 -13 -10 -24 -4 -10 -18 -50 -31 -90 -12 -39
-23 -65 -23 -57 -1 19 81 263 86 257 3 -3 -1 -22 -8 -43z m1551 42 c0 -2 -19
-14 -42 -26 -24 -12 -76 -42 -116 -66 -41 -25 -76 -43 -78 -40 -8 7 21 27 123
83 93 51 113 60 113 49z m-1180 -55 c0 -5 -4 -10 -10 -10 -5 0 -10 5 -10 10 0
6 5 10 10 10 6 0 10 -4 10 -10z m3540 -54 c0 -7 -27 -42 -59 -77 -47 -51 -62
-62 -72 -52 -14 13 -10 19 70 106 36 38 61 48 61 23z m-2252 -131 c70 -75 15
-185 -92 -185 -92 0 -141 126 -73 191 52 50 114 47 165 -6z m1618 29 c47 -22
64 -50 64 -102 0 -37 -6 -50 -34 -78 -39 -39 -89 -45 -137 -17 -29 17 -59 67
-59 98 0 39 47 98 85 108 36 8 46 7 81 -9z m-3046 -34 c0 -5 -2 -10 -4 -10 -3
0 -8 5 -11 10 -3 6 -1 10 4 10 6 0 11 -4 11 -10z m3840 -28 c0 -18 -110 -122
-129 -122 -29 0 -16 26 41 80 65 62 88 73 88 42z m-4156 -36 c-3 -15 -8 -25
-11 -23 -2 3 -1 17 3 31 3 15 8 25 11 23 2 -3 1 -17 -3 -31z m251 -26 c3 -5 1
-10 -4 -10 -6 0 -11 5 -11 10 0 6 2 10 4 10 3 0 8 -4 11 -10z m5065 -65 c0 -8
-68 36 -82 52 -7 10 8 2 35 -16 26 -17 47 -34 47 -36z m-5336 21 c-3 -15 -8
-25 -11 -23 -2 3 -1 17 3 31 3 15 8 25 11 23 2 -3 1 -17 -3 -31z m5441 -91
c39 -29 93 -73 120 -99 l50 -48 -50 41 c-27 23 -84 67 -125 98 -41 31 -79 60
-85 66 -18 18 18 -5 90 -58z m-1118 18 c4 -11 -127 -113 -146 -113 -31 0 -4
40 56 83 65 46 83 52 90 30z m183 -53 c-8 -5 -19 -10 -25 -10 -5 0 -3 5 5 10
8 5 20 10 25 10 6 0 3 -5 -5 -10z m-4543 -22 c-3 -8 -6 -5 -6 6 -1 11 2 17 5
13 3 -3 4 -12 1 -19z m607 14 c2 -4 -11 -6 -30 -4 -19 2 -34 6 -34 8 0 8 59 4
64 -4z m278 -229 c-27 -44 -54 -94 -61 -112 -14 -32 -39 -45 -26 -14 13 35
130 224 132 216 2 -5 -18 -45 -45 -90z m3369 -36 c28 -49 49 -90 46 -93 -2 -3
-23 28 -46 68 -22 40 -53 93 -67 118 -19 34 -21 39 -5 20 11 -14 44 -65 72
-113z m124 53 c-10 -11 -26 -20 -36 -20 -31 0 -33 22 -4 47 25 22 29 23 43 9
14 -14 14 -17 -3 -36z m-1895 -85 c0 -30 -5 -57 -11 -61 -6 -3 -33 15 -60 42
l-49 48 0 -41 c0 -23 -4 -45 -10 -48 -11 -7 -11 -8 -14 63 -3 67 16 69 73 7
23 -25 43 -45 46 -45 2 0 1 16 -2 35 -3 19 -3 41 1 50 12 31 26 3 26 -50z
m170 55 c0 -5 -23 -10 -51 -10 -43 0 -50 -3 -47 -17 3 -14 13 -18 45 -18 23 0
45 -3 49 -7 4 -5 -16 -8 -44 -8 -45 0 -52 -3 -52 -20 0 -17 7 -20 50 -20 28 0
50 -4 50 -10 0 -11 -78 -14 -104 -4 -20 8 -23 110 -3 117 23 10 107 7 107 -3z
m173 -9 c9 -9 9 -16 -1 -31 -7 -12 -8 -21 -2 -25 12 -7 14 -45 2 -45 -4 0 -12
10 -17 22 -8 17 -19 23 -47 24 -33 1 -38 -2 -38 -22 0 -31 -18 -40 -24 -12 -4
20 -3 74 2 102 3 12 110 2 125 -13z m164 -42 c20 -33 28 -55 22 -58 -7 -2 -16
4 -21 13 -6 10 -22 16 -48 16 -26 0 -42 -6 -48 -16 -5 -9 -14 -15 -19 -13 -14
6 56 121 70 116 6 -2 26 -28 44 -58z m93 -5 c0 -37 -4 -54 -13 -54 -8 0 -12
16 -11 53 1 66 2 69 14 62 6 -3 10 -31 10 -61z m-950 37 c15 -28 -12 -51 -60
-51 -31 0 -39 -4 -42 -20 -6 -41 -23 -19 -26 35 l-3 55 60 0 c49 0 62 -4 71
-19z m119 -2 c35 -57 51 -92 45 -98 -3 -3 -13 4 -21 17 -11 16 -25 22 -50 22
-24 0 -40 -7 -53 -22 -33 -41 -31 -12 2 45 35 61 55 70 77 36z m1814 -69 c52
-58 28 -147 -49 -176 -37 -14 -45 -14 -77 -1 -69 29 -95 108 -55 167 44 65
126 70 181 10z m-2881 20 c56 -44 61 -125 9 -174 -75 -72 -194 -21 -194 83 0
43 21 78 55 98 35 19 102 16 130 -7z m2575 -32 c-8 -18 -31 -69 -51 -113 l-37
-80 -197 -137 c-109 -75 -202 -138 -208 -140 -12 -3 -124 133 -124 150 0 5 42
44 93 85 315 258 280 234 360 247 39 6 79 13 87 14 8 2 32 4 53 5 l37 1 -13
-32z m-3830 -10 c-3 -7 -5 -2 -5 12 0 14 2 19 5 13 2 -7 2 -19 0 -25z m4663
17 c0 -18 -147 -88 -167 -81 -28 11 -10 28 60 61 80 37 107 42 107 20z m-4670
-72 c-17 -75 -17 -77 -13 -29 4 46 9 66 18 66 1 0 -1 -17 -5 -37z m2108 -21
c3 -11 0 -12 -18 -2 -23 12 -50 7 -50 -10 0 -5 10 -10 23 -10 13 0 32 -6 42
-14 16 -12 17 -16 6 -30 -19 -23 -91 -19 -91 5 0 5 11 4 24 -3 26 -11 56 -6
56 11 0 5 -16 12 -36 15 -38 8 -56 32 -33 47 20 13 72 7 77 -9z m57 -62 c8 -6
23 -9 35 -5 16 5 20 15 20 46 0 21 5 39 10 39 14 0 12 -74 -2 -88 -14 -14 -57
-16 -77 -3 -8 5 -15 24 -16 43 -3 46 9 61 13 16 2 -20 9 -42 17 -48z m182 72
c6 -4 10 -25 10 -47 l-2 -40 -45 0 c-44 0 -45 1 -48 33 -2 19 -1 40 2 48 6 15
62 19 83 6z m76 -27 c9 -19 20 -35 24 -35 5 0 15 15 24 32 25 51 39 47 39 -12
0 -33 -4 -49 -10 -45 -6 4 -9 20 -6 36 2 16 3 29 1 29 -2 0 -13 -17 -25 -37
l-22 -37 -24 39 -24 40 0 -38 c0 -23 -4 -36 -10 -32 -11 7 -14 78 -3 88 12 13
19 7 36 -28z m197 27 c0 -4 -14 -7 -32 -7 -17 0 -33 -6 -35 -12 -3 -9 7 -13
31 -13 20 0 36 -3 36 -8 0 -4 -14 -7 -32 -7 -17 0 -33 -6 -35 -12 -3 -9 7 -13
31 -13 20 0 36 -4 36 -10 0 -5 -18 -10 -40 -10 l-40 0 0 50 0 50 40 0 c22 0
40 -3 40 -8z m117 -42 c1 -39 0 -43 -11 -27 -19 25 -66 23 -66 -4 0 -11 -4
-17 -10 -14 -11 7 -14 78 -3 89 4 4 25 6 48 4 l40 -3 2 -45z m111 32 c3 -11 0
-11 -16 -1 -21 13 -57 5 -47 -11 3 -5 17 -10 29 -10 33 0 53 -25 36 -45 -23
-28 -90 -13 -90 19 0 6 5 5 12 -2 14 -14 68 -16 68 -2 0 5 -18 14 -40 20 -37
10 -50 27 -33 44 12 12 76 2 81 -12z m50 -32 c0 -22 -3 -40 -9 -40 -5 0 -9 21
-9 46 0 25 4 43 9 40 5 -3 9 -24 9 -46z m113 43 c0 -5 2 -22 4 -39 6 -40 -13
-56 -57 -52 -32 3 -33 5 -36 51 l-3 47 45 0 c26 0 46 -3 47 -7z m49 -32 c0
-37 2 -40 33 -44 28 -3 26 -4 -10 -5 l-43 -2 0 45 c0 25 5 45 10 45 6 0 10
-18 10 -39z m131 30 c-49 -9 -52 -31 -4 -33 l38 -1 -37 -4 c-24 -3 -38 -9 -38
-18 0 -9 14 -15 38 -18 l37 -4 -42 -1 -43 -2 0 45 0 45 43 -1 c42 -2 42 -2 8
-8z m-3120 -68 c-12 -20 -14 -14 -5 12 4 9 9 14 11 11 3 -2 0 -13 -6 -23z
m-94 -65 c-2 -13 -4 -5 -4 17 -1 22 1 32 4 23 2 -10 2 -28 0 -40z m4771 0 c3
-17 -81 -55 -147 -65 -28 -5 -33 -3 -29 13 2 13 25 27 78 46 81 29 93 30 98 6z
m-4692 -24 c-9 -8 -16 -23 -17 -32 0 -10 -3 -12 -5 -5 -7 15 13 53 27 53 6 0
3 -7 -5 -16z m-89 -56 c-2 -13 -4 -5 -4 17 -1 22 1 32 4 23 2 -10 2 -28 0 -40z
m2091 -45 c39 -29 72 -56 72 -59 0 -8 -140 -214 -145 -214 -3 0 -42 24 -88 53
l-83 54 -21 94 c-12 52 -19 96 -17 98 8 9 180 38 194 33 8 -3 48 -29 88 -59z
m-2101 -55 c-2 -13 -4 -3 -4 22 0 25 2 35 4 23 2 -13 2 -33 0 -45z m67 32
c-18 -36 -24 -38 -16 -7 4 18 18 36 29 37 1 0 -5 -13 -13 -30z m1646 25 c0 -4
-8 -20 -17 -38 -13 -24 -18 -28 -21 -15 -4 20 14 58 28 58 6 0 10 -2 10 -5z
m38 -30 c-3 -3 -9 2 -12 12 -6 14 -5 15 5 6 7 -7 10 -15 7 -18z m1535 -58 c31
-41 57 -77 57 -79 0 -3 -35 -30 -77 -59 -43 -29 -156 -108 -251 -176 -194
-138 -208 -147 -216 -134 -4 5 109 89 249 187 140 98 255 181 255 186 0 13
-79 118 -88 118 -7 0 -341 -267 -446 -356 -21 -18 -43 -31 -48 -28 -4 3 -6 9
-3 14 3 5 82 71 177 147 94 76 205 166 246 200 41 34 78 60 82 58 3 -2 32 -37
63 -78z m2058 46 c-12 -20 -14 -14 -5 12 4 9 9 14 11 11 3 -2 0 -13 -6 -23z
m-3601 -45 c28 -82 20 -236 -15 -284 -13 -18 -15 -17 -29 18 -23 55 -30 136
-16 203 20 100 39 120 60 63z m-246 0 c23 -37 -35 -76 -70 -48 -18 16 -18 35
2 55 20 20 53 16 68 -7z m3355 -23 c-12 -10 -141 -45 -170 -45 -5 0 -9 9 -9
20 0 19 1 20 115 47 49 11 86 -1 64 -22z m-2418 -127 c110 -78 196 -144 190
-146 -15 -5 -39 10 -228 144 -96 69 -176 124 -178 122 -20 -25 -115 -167 -115
-172 0 -3 5 -6 10 -6 6 0 9 5 8 11 -2 6 5 16 15 22 35 24 77 -33 43 -59 -14
-10 7 -26 149 -114 90 -56 167 -106 171 -111 17 -29 -44 4 -284 151 l-152 93
17 26 c97 150 128 191 140 187 7 -3 103 -70 214 -148z m-2378 115 c-7 -2 -13
-14 -14 -26 0 -12 -3 -16 -6 -9 -7 18 4 42 19 41 10 0 10 -2 1 -6z m5734 -30
c-3 -10 -5 -4 -5 12 0 17 2 24 5 18 2 -7 2 -21 0 -30z m-5800 5 c-3 -8 -6 -5
-6 6 -1 11 2 17 5 13 3 -3 4 -12 1 -19z m5375 -23 c2 -19 0 -35 -4 -35 -4 0
-8 5 -8 11 0 6 -7 3 -16 -5 -8 -9 -18 -16 -22 -16 -3 0 -1 5 6 12 7 7 12 25
12 40 0 42 27 36 32 -7z m-5375 -27 c-3 -8 -6 -5 -6 6 -1 11 2 17 5 13 3 -3 4
-12 1 -19z m5641 -3 c3 -3 -47 -5 -112 -5 -80 0 -115 3 -111 11 7 10 212 5
223 -6z m169 -27 c-3 -7 -5 -2 -5 12 0 14 2 19 5 13 2 -7 2 -19 0 -25z m-5770
-28 c-7 -17 -13 -26 -15 -21 -3 10 15 51 22 51 3 0 -1 -14 -7 -30z m1267 -3
c38 -27 -2 -96 -41 -71 -25 16 -28 42 -7 65 20 23 25 23 48 6z m4514 -56 c-2
-22 -6 -39 -9 -38 -4 1 -8 -2 -9 -8 -3 -17 -22 -35 -31 -29 -5 3 -9 0 -9 -5 0
-6 -7 -11 -15 -11 -8 0 -15 -7 -15 -17 0 -9 -3 -13 -7 -10 -3 4 -15 0 -25 -10
-10 -9 -18 -11 -18 -6 0 6 15 22 34 36 61 47 96 88 96 113 0 13 2 24 5 24 3 0
4 -18 3 -39z m-235 22 c-35 -2 -91 -2 -125 0 -35 2 -7 3 62 3 69 0 97 -1 63
-3z m-687 -24 c13 -22 -23 -37 -103 -44 -72 -6 -83 -5 -83 9 0 21 26 32 85 35
28 2 52 5 54 7 9 8 40 4 47 -7z m771 -21 c-3 -8 -6 -5 -6 6 -1 11 2 17 5 13 3
-3 4 -12 1 -19z m-304 5 c-7 -2 -19 -2 -25 0 -7 3 -2 5 12 5 14 0 19 -2 13 -5z
m-5331 -25 c-5 -7 -12 -22 -15 -33 -4 -16 -5 -15 -6 6 -1 27 6 39 22 39 6 0 5
-5 -1 -12z m399 -38 c20 -6 43 -18 50 -27 12 -14 10 -14 -20 2 -25 12 -49 16
-90 13 -53 -5 -54 -4 -26 8 37 16 41 16 86 4z m4581 2 c10 -4 -10 -7 -45 -8
-41 0 -53 2 -37 7 32 9 61 9 82 1z m586 -39 c-10 -2 -26 -2 -35 0 -10 3 -2 5
17 5 19 0 27 -2 18 -5z m-5144 -35 c19 -27 13 -36 -9 -14 -19 19 -29 20 -56 6
-15 -8 -19 -8 -17 2 7 34 60 38 82 6z m-425 -5 c-8 -9 -13 -25 -11 -36 2 -11
-1 -17 -7 -13 -17 11 0 66 21 66 6 0 5 -7 -3 -17z m3969 1 c12 -8 22 -24 22
-34 0 -20 -38 -55 -71 -65 -34 -11 -20 -25 26 -25 42 0 61 -13 33 -22 -21 -7
-127 -3 -134 5 -10 10 32 53 66 67 48 20 50 70 4 70 -14 0 -27 -7 -30 -15 -4
-8 -15 -15 -25 -15 -13 0 -16 5 -12 16 12 33 84 44 121 18z m182 -2 c18 -15
21 -22 12 -37 -7 -14 -6 -25 5 -42 14 -21 14 -25 -2 -43 -13 -14 -31 -20 -61
-20 -62 0 -95 40 -59 70 11 9 13 16 5 24 -45 45 48 90 100 48z m-4193 -54 c-2
-13 -4 -5 -4 17 -1 22 1 32 4 23 2 -10 2 -28 0 -40z m2738 27 c14 -13 25 -33
25 -43 0 -16 -8 -19 -52 -18 -29 0 -61 -3 -70 -8 -26 -12 -24 34 3 68 26 33
62 34 94 1z m-2354 -25 c10 0 19 -4 19 -10 0 -26 -64 -3 -68 24 -3 18 -2 18
13 2 9 -9 25 -16 36 -16z m4266 -2 c-3 -7 -5 -2 -5 12 0 14 2 19 5 13 2 -7 2
-19 0 -25z m393 22 c17 -6 2 -8 -52 -9 -46 -1 -78 3 -78 9 0 12 94 12 130 0z
m-3661 -18 c7 -14 6 -25 -5 -40 -13 -19 -25 -22 -88 -22 -82 0 -103 12 -92 55
6 24 9 25 91 25 72 0 86 -3 94 -18z m899 1 c10 -20 5 -44 -12 -55 -6 -4 -43
-8 -81 -8 -72 0 -95 10 -95 40 0 31 23 40 102 40 64 0 79 -3 86 -17z m-1819
-19 c-14 -18 -24 -11 -15 11 3 9 11 13 16 10 8 -5 7 -11 -1 -21z m1291 10 c11
-12 10 -18 -3 -32 -16 -15 -18 -15 -34 0 -13 14 -14 20 -3 32 7 9 16 16 20 16
4 0 13 -7 20 -16z m3855 -1 c17 1 33 7 37 12 4 6 8 2 8 -7 0 -16 -12 -18 -115
-18 -63 0 -115 4 -115 9 0 5 20 8 45 8 25 -1 45 1 45 5 0 3 15 3 33 -2 17 -5
46 -8 62 -7z m-561 -34 c-3 -5 -9 -7 -14 -4 -5 3 -13 -3 -19 -12 -9 -16 -10
-15 -11 8 0 23 3 26 25 21 14 -2 22 -8 19 -13z m686 -4 c14 -19 14 -19 -2 -6
-10 7 -18 18 -18 24 0 6 1 8 3 6 1 -2 9 -13 17 -24z m-5733 -7 c-3 -8 -6 -5
-6 6 -1 11 2 17 5 13 3 -3 4 -12 1 -19z m2573 0 c0 -7 -26 -38 -57 -70 -77
-78 -63 -93 36 -38 66 35 101 44 86 20 -7 -11 -151 -90 -164 -90 -6 0 -18 11
-27 25 -16 24 -15 26 47 95 62 69 79 81 79 58z m-2537 -13 c-3 -9 -8 -14 -10
-11 -3 3 -2 9 2 15 9 16 15 13 8 -4z m2910 -43 l58 -58 -24 -35 c-12 -18 -30
-35 -38 -37 -18 -3 -175 66 -167 74 5 4 67 -17 149 -50 11 -5 22 2 34 20 l17
26 -58 59 c-33 33 -52 59 -43 59 8 0 40 -26 72 -58z m-2513 37 c0 -8 4 -8 14
0 10 8 16 9 21 1 10 -16 -22 -23 -81 -16 -30 3 -54 4 -54 2 0 -6 85 -46 98
-46 13 0 16 -13 6 -22 -3 -4 -22 0 -42 9 -87 35 -93 83 -11 83 30 0 49 -4 49
-11z m4217 -21 c-3 -8 -6 -5 -6 6 -1 11 2 17 5 13 3 -3 4 -12 1 -19z m343 -18
c0 -14 -31 -20 -51 -10 -30 16 -22 26 16 22 19 -2 35 -8 35 -12z m642 -9 c16
9 19 8 16 -3 -3 -7 -12 -12 -21 -12 -9 1 -47 3 -84 4 l-68 3 65 6 c36 3 66 3
68 -1 2 -5 13 -3 24 3z m195 -63 c-2 -13 -4 -5 -4 17 -1 22 1 32 4 23 2 -10 2
-28 0 -40z m-5795 -15 c-3 -16 -7 -22 -10 -15 -4 13 4 42 11 42 2 0 2 -12 -1
-27z m387 -9 c9 -8 -45 -2 -64 6 -14 7 -8 8 20 3 22 -3 42 -7 44 -9z m5398
-51 c-3 -10 -5 -2 -5 17 0 19 2 27 5 18 2 -10 2 -26 0 -35z m-4490 1 c12 -19
11 -24 -5 -44 -13 -17 -24 -21 -40 -16 -31 10 -41 55 -16 73 24 17 43 13 61
-13z m879 5 c19 -22 13 -43 -19 -63 -12 -8 -21 -5 -36 8 -25 23 -26 39 -5 60
21 21 37 20 60 -5z m-2169 -71 c-3 -7 -5 -2 -5 12 0 14 2 19 5 13 2 -7 2 -19
0 -25z m5334 -12 c-7 -45 -31 -62 -31 -22 0 14 4 26 9 26 5 0 11 10 14 22 10
36 15 17 8 -26z m436 -8 c-3 -7 -5 -2 -5 12 0 14 2 19 5 13 2 -7 2 -19 0 -25z
m-4038 -42 c8 -9 11 -43 9 -92 -2 -60 -7 -79 -20 -88 -13 -8 -23 -8 -35 0 -14
9 -19 28 -21 88 -3 81 6 106 38 106 10 0 23 -6 29 -14z m-1712 -53 c-3 -10 -5
-4 -5 12 0 17 2 24 5 18 2 -7 2 -21 0 -30z m5733 -32 c-6 -11 -20 -25 -33 -31
-19 -9 -20 -9 -6 2 21 18 39 52 40 80 2 20 3 19 6 -4 2 -15 -1 -36 -7 -47z
m-4280 34 c7 -9 10 -25 6 -40 -6 -22 -11 -26 -39 -23 -25 2 -33 8 -35 26 -7
44 41 70 68 37z m514 -7 c15 -25 -3 -52 -38 -56 -20 -3 -28 2 -35 20 -13 33 4
60 36 56 14 -2 31 -11 37 -20z m-692 -310 c38 -26 53 -86 34 -131 -40 -96
-167 -104 -210 -13 -22 46 -20 77 7 117 39 58 109 69 169 27z m2873 -20 c19
-22 25 -41 25 -75 0 -38 -5 -50 -34 -79 -26 -26 -42 -34 -70 -34 -96 0 -154
88 -112 169 19 37 39 52 79 61 43 9 81 -5 112 -42z m-1946 -4 l28 -46 24 43
c34 61 53 58 57 -10 2 -40 0 -52 -10 -49 -8 3 -12 18 -11 36 2 42 -8 40 -32
-5 -11 -21 -24 -38 -30 -38 -5 0 -19 17 -30 37 -25 47 -32 48 -27 3 3 -27 1
-35 -12 -35 -12 0 -16 11 -16 48 0 78 17 82 59 16z m261 -11 c22 -38 26 -53
16 -53 -8 0 -16 7 -20 15 -3 9 -19 15 -41 15 -22 0 -38 -6 -41 -15 -4 -8 -12
-15 -20 -15 -9 0 -3 18 19 55 18 30 38 54 45 52 7 -1 26 -26 42 -54z m176 49
c6 -4 11 -28 12 -54 0 -49 -11 -64 -21 -28 -4 15 -14 20 -41 20 -29 0 -36 -4
-36 -20 0 -11 -4 -20 -10 -20 -11 0 -12 4 -12 50 0 61 -1 60 50 60 26 0 52 -4
58 -8z m94 -53 c0 -36 -4 -49 -12 -46 -12 3 -13 22 -9 95 1 7 6 10 11 7 6 -3
10 -29 10 -56z m115 21 c21 -22 43 -40 47 -40 4 0 8 18 8 40 0 22 5 40 10 40
6 0 10 -25 10 -55 0 -67 -10 -69 -67 -13 l-43 42 0 -42 c0 -23 -4 -42 -10 -42
-5 0 -10 25 -10 55 0 30 4 55 8 55 4 0 26 -18 47 -40z m224 -12 c32 -55 33
-72 3 -45 -10 10 -31 17 -47 17 -16 0 -37 -7 -47 -17 -10 -9 -20 -14 -22 -12
-9 8 56 109 70 109 7 0 27 -23 43 -52z m-2168 -150 c18 -35 47 -87 66 -116 19
-30 32 -59 30 -65 -2 -6 -27 28 -55 75 -71 120 -94 168 -82 168 5 0 24 -28 41
-62z m3499 57 c0 -9 -70 -135 -107 -194 -53 -83 -49 -54 4 35 27 44 57 98 68
122 17 36 35 55 35 37z m-1725 -25 c-26 -5 -30 -10 -32 -40 -1 -19 -2 -41 -2
-47 -1 -7 -5 -13 -11 -13 -5 0 -10 23 -10 50 0 47 -1 50 -27 52 -16 1 -1 4 32
7 64 7 100 0 50 -9z m286 3 c8 -8 8 -17 0 -31 -7 -14 -8 -23 -1 -27 13 -8 13
-45 0 -45 -6 0 -15 11 -20 25 -8 20 -16 25 -45 25 -31 0 -35 -3 -35 -25 0 -14
-4 -25 -10 -25 -10 0 -15 102 -5 112 9 9 106 1 116 -9z m144 7 c4 -6 -13 -10
-39 -10 -34 0 -46 -4 -46 -15 0 -11 11 -15 40 -15 22 0 40 -4 40 -10 0 -5 -18
-10 -40 -10 -29 0 -40 -4 -40 -15 0 -11 12 -15 45 -15 25 0 45 -4 45 -10 0 -5
-25 -10 -55 -10 l-55 0 0 58 0 57 50 2 c27 1 52 -2 55 -7z m-903 -47 l26 -47
23 47 c15 30 29 47 41 47 15 0 18 -9 18 -55 0 -65 -17 -74 -22 -12 l-3 42 -24
-42 c-14 -24 -30 -43 -36 -43 -7 0 -20 18 -30 40 -10 22 -21 40 -24 40 -3 0
-6 -16 -6 -37 0 -20 -6 -38 -12 -40 -9 -3 -13 10 -13 45 0 79 22 84 62 15z
m158 -8 c0 -30 -4 -55 -10 -55 -5 0 -10 25 -10 55 0 30 5 55 10 55 6 0 10 -25
10 -55z m60 10 l0 -45 40 0 c22 0 40 -4 40 -10 0 -5 -22 -10 -50 -10 l-50 0 0
55 c0 30 5 55 10 55 6 0 10 -20 10 -45z m130 -11 c0 -40 -3 -55 -12 -52 -12 4
-21 84 -11 101 13 22 23 0 23 -49z m243 3 c28 -47 30 -81 1 -43 -19 27 -74 27
-96 1 -27 -31 -22 0 8 51 16 28 32 44 42 42 8 -2 29 -25 45 -51z m-2130 -144
c-7 -2 -21 -2 -30 0 -10 3 -4 5 12 5 17 0 24 -2 18 -5z m3987 -3 c11 -7 5 -10
-23 -10 -23 0 -36 4 -32 10 8 13 35 13 55 0z m-1983 -163 c15 -20 18 -41 17
-138 -1 -63 -2 -169 -3 -236 -1 -131 -9 -153 -55 -153 -44 0 -47 16 -53 268
-6 235 -6 239 15 260 28 28 56 28 79 -1z m-781 -111 c29 -29 34 -41 34 -81 0
-40 -5 -52 -34 -81 -29 -29 -41 -34 -80 -34 -67 0 -107 38 -114 108 -4 49 -2
54 31 87 30 30 42 35 82 35 40 0 52 -5 81 -34z m1632 18 c28 -19 52 -65 52
-99 0 -34 -24 -80 -52 -99 -12 -9 -42 -16 -66 -16 -37 0 -50 6 -78 34 -28 28
-34 42 -34 76 0 47 23 93 54 109 32 15 99 13 124 -5z m-1943 -324 c22 -15 76
-47 119 -70 44 -24 75 -45 69 -47 -6 -2 -55 22 -109 53 -132 76 -133 77 -139
92 -5 15 0 12 60 -28z m2165 26 c0 -13 -239 -151 -247 -142 -8 8 -7 9 62 44
33 17 85 47 115 66 51 33 70 42 70 32z m-1570 -52 c0 -2 -9 0 -20 6 -11 6 -20
13 -20 16 0 2 9 0 20 -6 11 -6 20 -13 20 -16z m80 16 c-19 -13 -30 -13 -30 0
0 6 10 10 23 10 18 0 19 -2 7 -10z m743 3 c-7 -2 -13 -14 -13 -26 -1 -20 -2
-20 -11 -4 -12 21 -4 37 19 36 11 0 12 -3 5 -6z m86 -9 c6 4 11 2 11 -3 0 -6
-9 -11 -20 -11 -12 0 -20 7 -20 18 0 13 2 14 9 3 5 -7 14 -10 20 -7z m-771 -7
c15 6 15 5 3 -10 -18 -23 -27 -21 -28 6 0 12 1 17 4 10 2 -7 12 -9 21 -6z
m-53 -7 c3 -5 1 -10 -4 -10 -6 0 -11 5 -11 10 0 6 2 10 4 10 3 0 8 -4 11 -10z
m671 -20 c16 0 19 16 4 23 -6 3 -5 4 2 3 22 -4 14 -31 -9 -34 -19 -3 -23 1
-22 20 1 17 3 18 6 6 2 -10 11 -18 19 -18z m-594 -2 c-7 -7 -12 -8 -12 -2 0 6
3 14 7 17 3 4 9 5 12 2 2 -3 -1 -11 -7 -17z m98 14 c0 -4 -9 -8 -20 -9 -11 -1
-18 2 -15 8 7 11 35 12 35 1z m444 -8 c4 -9 4 -19 1 -22 -2 -3 -8 3 -12 13 -6
18 -7 18 -14 -1 -7 -17 -8 -17 -8 4 -1 26 24 30 33 6z m-404 -4 c0 -5 -2 -10
-4 -10 -3 0 -8 5 -11 10 -3 6 -1 10 4 10 6 0 11 -4 11 -10z m333 1 c-4 -3 -10
-9 -13 -12 -3 -4 -10 -1 -17 6 -9 10 -6 13 13 13 14 0 21 -3 17 -7z m-368 -21
c-3 -5 -11 -10 -16 -10 -6 0 -7 5 -4 10 3 6 11 10 16 10 6 0 7 -4 4 -10z
m-268 -186 c-3 -3 -12 -4 -19 -1 -8 3 -5 6 6 6 11 1 17 -2 13 -5z m1630 0 c-3
-3 -12 -4 -19 -1 -8 3 -5 6 6 6 11 1 17 -2 13 -5z m-1112 -58 c11 -2 -13 -4
-53 -5 -40 0 -71 2 -68 7 4 7 73 6 121 -2z m11 -181 c17 -13 16 -14 -14 -4
-18 6 -52 9 -75 6 -29 -4 -36 -3 -22 3 32 14 89 11 111 -5z m-1431 -75 c10
-11 16 -20 13 -20 -3 0 -13 9 -23 20 -10 11 -16 20 -13 20 3 0 13 -9 23 -20z
m76 -26 c21 -24 22 -26 3 -16 -25 13 -50 42 -37 42 5 0 20 -12 34 -26z m1257
14 c7 -7 12 -16 12 -22 0 -6 -5 -5 -12 2 -17 17 -45 15 -52 -4 -4 -9 -9 -14
-13 -10 -8 8 26 46 42 46 6 0 16 -5 23 -12z m138 -13 c21 -32 9 -47 -12 -17
-16 23 -54 30 -54 10 0 -6 -3 -8 -6 -5 -11 10 17 37 37 37 10 0 26 -11 35 -25z
m-1362 -74 c-3 -3 -15 6 -27 18 l-22 24 27 -19 c14 -10 24 -21 22 -23z m1332
8 c3 -5 -2 -9 -11 -9 -10 0 -14 -5 -10 -12 4 -7 -1 -4 -9 6 -9 11 -16 23 -16
27 0 9 39 -1 46 -12z m-1217 -56 c2 -2 2 -5 -1 -8 -2 -3 -18 10 -34 28 l-29
32 30 -25 c17 -14 32 -26 34 -27z m1076 7 c13 0 26 5 28 10 3 6 4 5 3 -2 -2
-7 -15 -13 -31 -13 -16 0 -29 6 -31 13 -1 7 0 8 3 2 2 -5 15 -10 28 -10z m170
-10 c4 -6 -11 -10 -40 -10 -25 0 -44 4 -41 8 7 12 74 14 81 2z m-130 -85 c40
-11 44 -14 20 -14 -16 0 -41 6 -55 14 -31 18 -28 18 35 0z m-1475 -27 c-16
-26 -20 -53 -22 -133 l-2 -100 -4 85 c-4 99 3 143 24 165 24 24 25 18 4 -17z
m17 -105 c-3 -10 -5 -2 -5 17 0 19 2 27 5 18 2 -10 2 -26 0 -35z m1118 19 c-3
-3 -11 0 -18 7 -9 10 -8 11 6 5 10 -3 15 -9 12 -12z m-1158 -244 c-3 -8 -6 -5
-6 6 -1 11 2 17 5 13 3 -3 4 -12 1 -19z"/>
<path d="M2475 8300 c3 -5 8 -10 11 -10 2 0 4 5 4 10 0 6 -5 10 -11 10 -5 0
-7 -4 -4 -10z"/>
<path d="M2510 8279 c0 -5 5 -7 10 -4 6 3 10 8 10 11 0 2 -4 4 -10 4 -5 0 -10
-5 -10 -11z"/>
<path d="M2546 8221 c-4 -7 -5 -15 -2 -18 9 -9 19 4 14 18 -4 11 -6 11 -12 0z"/>
<path d="M2495 8200 c3 -5 8 -10 11 -10 2 0 4 5 4 10 0 6 -5 10 -11 10 -5 0
-7 -4 -4 -10z"/>
<path d="M2390 8181 c0 -6 4 -13 10 -16 6 -3 7 1 4 9 -7 18 -14 21 -14 7z"/>
<path d="M2467 8133 c-9 -2 -15 -9 -12 -14 4 -5 -5 -9 -19 -9 -14 0 -26 -4
-26 -10 0 -5 16 -10 36 -10 22 0 33 4 29 10 -4 6 -1 17 5 25 7 8 11 14 9 14
-2 -1 -12 -3 -22 -6z"/>
<path d="M3380 7689 c0 -5 5 -7 10 -4 6 3 10 8 10 11 0 2 -4 4 -10 4 -5 0 -10
-5 -10 -11z"/>
<path d="M4930 7676 c0 -2 7 -6 15 -10 8 -3 15 -1 15 4 0 6 -7 10 -15 10 -8 0
-15 -2 -15 -4z"/>
<path d="M4310 6160 c0 -19 5 -21 43 -18 29 2 42 8 42 18 0 10 -13 16 -42 18
-38 3 -43 1 -43 -18z"/>
<path d="M4512 6150 c-11 -18 -10 -20 18 -20 28 0 29 2 18 20 -7 11 -15 20
-18 20 -3 0 -11 -9 -18 -20z"/>
<path d="M3620 6161 c0 -18 6 -21 41 -21 33 0 40 3 37 18 -2 12 -14 18 -41 20
-32 3 -37 0 -37 -17z"/>
<path d="M3792 6150 c-7 -11 -9 -20 -5 -21 5 0 18 -2 31 -5 25 -4 27 3 8 29
-17 22 -18 21 -34 -3z"/>
<path d="M3795 6002 c-13 -13 -2 -22 26 -22 19 0 29 4 27 12 -4 12 -44 19 -53
10z"/>
<path d="M3808 5962 c-10 -2 -18 -7 -18 -12 0 -9 41 -18 58 -12 32 10 -4 32
-40 24z"/>
<path d="M4177 6003 c-15 -14 -6 -23 22 -23 34 0 49 15 25 24 -21 8 -39 8 -47
-1z"/>
<path d="M4450 5995 c0 -12 7 -15 25 -13 14 2 26 8 26 13 0 6 -12 11 -26 13
-18 2 -25 -1 -25 -13z"/>
<path d="M4450 5956 c0 -11 10 -16 31 -16 38 0 35 24 -4 28 -19 2 -27 -1 -27
-12z"/>
<path d="M5567 5266 c-6 -15 11 -36 28 -36 17 0 34 21 28 36 -3 8 -15 14 -28
14 -13 0 -25 -6 -28 -14z"/>
<path d="M5563 5194 c-9 -24 24 -47 49 -33 27 15 18 43 -15 47 -18 2 -29 -2
-34 -14z"/>
<path d="M3917 4466 c-11 -28 -8 -36 13 -36 23 0 25 9 7 34 -13 18 -14 18 -20
2z"/>
<path d="M4060 4464 c0 -11 9 -14 37 -12 52 4 56 28 4 28 -30 0 -41 -4 -41
-16z"/>
<path d="M4520 4460 c-9 -18 -8 -20 15 -20 23 0 24 2 15 20 -6 11 -13 20 -15
20 -2 0 -9 -9 -15 -20z"/>
<path d="M4370 4310 c0 -19 4 -20 38 -14 45 8 54 13 47 25 -4 5 -24 9 -46 9
-33 0 -39 -3 -39 -20z"/>
<path d="M4240 4300 c-9 -18 -8 -20 15 -20 27 0 28 1 19 24 -8 22 -21 20 -34
-4z"/>
</g>
</svg>
