<?xml version="1.0" standalone="no"?>
<!DOCTYPE svg PUBLIC "-//W3C//DTD SVG 20010904//EN"
 "http://www.w3.org/TR/2001/REC-SVG-20010904/DTD/svg10.dtd">
<svg version="1.0" xmlns="http://www.w3.org/2000/svg"
 width="130.000000pt" height="87.000000pt" viewBox="0 0 130.000000 87.000000"
 preserveAspectRatio="xMidYMid meet">

<g transform="translate(0.000000,87.000000) scale(0.100000,-0.100000)"
fill="#000000" stroke="none">
<path d="M559 803 c-18 -4 -36 -55 -46 -129 -4 -30 -13 -54 -25 -62 -16 -12
-18 -29 -18 -171 0 -141 2 -160 19 -175 11 -10 21 -37 24 -66 3 -27 11 -67 18
-89 10 -34 16 -40 48 -45 46 -8 110 -8 148 0 34 7 49 41 60 134 3 29 13 56 24
66 15 13 19 31 19 81 0 49 3 63 15 63 9 0 15 9 15 25 0 16 -6 25 -15 25 -12 0
-15 13 -15 60 0 45 -5 65 -18 78 -12 12 -21 40 -25 78 -9 81 -24 121 -50 128
-25 6 -153 6 -178 -1z m197 -214 c32 -19 54 -47 54 -66 0 -4 -5 0 -11 10 -6
10 -29 31 -51 47 -47 34 -42 40 8 9z m-162 -45 c3 -8 2 -12 -4 -9 -6 3 -10 10
-10 16 0 14 7 11 14 -7z m66 -14 c-8 -5 -19 -10 -25 -10 -5 0 -3 5 5 10 8 5
20 10 25 10 6 0 3 -5 -5 -10z m94 -26 c4 -12 2 -15 -9 -11 -8 4 -17 2 -20 -3
-3 -6 -16 -15 -28 -21 -13 -6 -8 2 13 20 42 36 37 35 44 15z m-126 -42 c6 -19
-13 -14 -33 8 -18 20 -18 21 5 12 13 -5 26 -14 28 -20z m-55 -33 c-9 -9 -12
-7 -10 9 1 14 5 18 11 12 7 -7 6 -14 -1 -21z m193 20 c3 -6 1 -15 -5 -20 -6
-5 -9 -6 -6 -3 3 4 0 13 -6 21 -8 9 -8 13 -1 13 6 0 14 -5 18 -11z m-129 -111
c-3 -8 -6 -5 -6 6 -1 11 2 17 5 13 3 -3 4 -12 1 -19z"/>
</g>
</svg>
