<?xml version="1.0" standalone="no"?>
<!DOCTYPE svg PUBLIC "-//W3C//DTD SVG 20010904//EN"
 "http://www.w3.org/TR/2001/REC-SVG-20010904/DTD/svg10.dtd">
<svg version="1.0" xmlns="http://www.w3.org/2000/svg"
 width="680.000000pt" height="454.000000pt" viewBox="0 0 680.000000 454.000000"
 preserveAspectRatio="xMidYMid meet">

<g transform="translate(0.000000,454.000000) scale(0.100000,-0.100000)"
fill="#000000" stroke="none">
<path d="M3094 4248 c-3 -4 -26 -10 -52 -13 -107 -15 -117 -21 -150 -83 -16
-31 -42 -93 -56 -137 -44 -134 -109 -476 -119 -622 -1 -18 -8 -35 -14 -38 -9
-3 -13 -31 -13 -93 l0 -90 -45 -11 c-56 -14 -113 -63 -137 -118 -18 -40 -19
-82 -19 -777 0 -796 -1 -775 54 -835 27 -30 93 -60 130 -61 l27 0 0 -88 c0
-48 4 -92 9 -98 5 -5 16 -65 26 -134 40 -304 139 -660 197 -708 8 -6 45 -16
83 -22 37 -6 72 -13 77 -17 12 -7 607 -7 615 0 3 3 39 11 80 18 66 11 77 16
102 47 39 46 82 160 120 312 34 135 71 367 71 442 0 26 4 50 10 53 6 3 10 48
10 99 l0 93 38 7 c53 8 107 48 131 99 20 41 21 58 21 356 0 247 3 311 13 304
6 -4 26 -8 44 -8 27 -1 34 4 48 35 17 40 19 194 2 183 -6 -3 -7 -2 -4 4 4 6 1
22 -6 37 -10 21 -19 26 -49 26 -20 0 -39 -6 -41 -12 -3 -7 -6 127 -6 297 -1
174 -6 326 -11 346 -18 65 -100 126 -170 128 l-25 1 5 91 c3 50 2 93 -1 95 -4
2 -10 37 -14 76 -25 276 -113 637 -179 737 -30 44 -34 46 -101 58 -38 7 -77
16 -85 19 -22 8 -611 10 -616 2z m496 -1129 c91 -21 246 -92 295 -134 25 -22
22 -21 -18 5 -67 44 -179 94 -262 116 -53 15 -104 19 -215 19 -80 0 -165 -3
-190 -7 -42 -7 -43 -7 -10 3 105 32 256 31 400 -2z m351 -176 c13 -16 12 -17
-3 -4 -17 13 -22 21 -14 21 2 0 10 -8 17 -17z m-845 -1391 c-5 -4 -86 36 -86
43 0 3 20 -5 45 -17 24 -12 43 -23 41 -26z m49 -12 c13 -6 15 -9 5 -9 -8 0
-22 4 -30 9 -18 12 -2 12 25 0z"/>
</g>
</svg>
